<?xml version="1.0" standalone="no"?>
<!DOCTYPE svg PUBLIC "-//W3C//DTD SVG 20010904//EN"
 "http://www.w3.org/TR/2001/REC-SVG-20010904/DTD/svg10.dtd">
<svg version="1.0" xmlns="http://www.w3.org/2000/svg"
 width="1280.000000pt" height="1280.000000pt" viewBox="0 0 1280.000000 1280.000000"
 preserveAspectRatio="xMidYMid meet">
<g transform="translate(0.000000,1280.000000) scale(0.100000,-0.100000)"
fill="#000000" stroke="none">
<path d="M6130 12790 c-47 -5 -175 -16 -285 -25 -1801 -147 -3491 -1093 -4577
-2561 -707 -957 -1134 -2077 -1232 -3234 -34 -402 -39 -492 -33 -645 33 -973
224 -1804 606 -2622 625 -1343 1745 -2464 3091 -3093 700 -327 1462 -528 2200
-580 85 -6 199 -15 253 -20 126 -13 363 -13 497 0 58 5 170 14 250 20 592 44
1197 179 1763 394 1017 386 1933 1039 2635 1876 854 1020 1368 2273 1471 3585
6 72 15 198 22 280 17 222 3 548 -42 955 -130 1183 -603 2320 -1360 3265
-1060 1325 -2607 2182 -4269 2364 -380 42 -804 59 -990 41z m28 -1788 l2
-1282 -112 0 c-219 0 -752 37 -1088 76 -349 40 -803 114 -815 133 -5 9 62 189
140 371 462 1084 1094 1787 1770 1970 39 10 77 18 85 17 13 -2 15 -154 18
-1285z m671 1241 c684 -226 1336 -1018 1771 -2153 27 -69 51 -133 55 -142 10
-25 -11 -31 -221 -67 -300 -51 -623 -92 -949 -121 -197 -17 -612 -40 -732 -40
l-113 0 0 1278 c0 703 3 1282 7 1285 10 11 67 -2 182 -40z m-1965 -141 c3 -5
-40 -58 -96 -117 -424 -459 -778 -1064 -1054 -1800 -42 -114 -56 -141 -73
-143 -25 -4 -252 59 -463 129 -241 80 -443 163 -646 264 -210 106 -282 149
-282 169 0 14 215 214 370 344 618 516 1356 908 2140 1136 98 29 97 29 104 18z
m3207 -27 c780 -233 1500 -618 2109 -1128 157 -131 370 -329 370 -343 0 -45
-472 -273 -810 -392 -261 -91 -553 -177 -585 -170 -11 2 -34 48 -69 143 -277
738 -626 1334 -1054 1800 -88 95 -108 125 -85 125 3 0 59 -16 124 -35z m-6001
-1933 c303 -183 767 -373 1235 -507 88 -25 170 -49 182 -54 l21 -10 -34 -128
c-217 -804 -338 -1615 -375 -2509 -6 -148 -12 -275 -14 -282 -4 -10 -268 -12
-1297 -10 l-1293 3 3 110 c6 214 58 609 117 880 194 898 581 1717 1154 2440
52 66 106 131 118 143 23 23 24 23 51 6 15 -10 74 -47 132 -82z m8928 -25
c652 -813 1068 -1736 1236 -2743 33 -195 64 -481 68 -619 l3 -110 -1295 0
-1295 0 -7 150 c-48 1061 -157 1819 -382 2648 l-35 129 34 14 c19 8 39 14 44
14 5 0 107 29 226 65 476 144 907 330 1211 524 43 27 83 47 90 44 6 -2 52 -55
102 -116z m-6776 -691 c508 -91 1082 -152 1583 -171 83 -3 196 -8 253 -11
l102 -6 -2 -1296 -3 -1297 -1291 -3 c-1049 -2 -1293 0 -1297 11 -7 18 10 406
28 642 55 709 166 1356 342 2000 41 151 47 165 73 165 10 0 106 -15 212 -34z
m4611 -26 c34 -102 135 -513 181 -735 96 -471 159 -932 196 -1440 15 -207 29
-556 23 -572 -4 -11 -239 -13 -1297 -11 l-1291 3 -3 1297 -2 1296 92 6 c51 3
165 8 253 11 497 17 1109 83 1580 170 99 18 196 32 215 31 33 -1 36 -4 53 -56z
m-5741 -3400 c46 -1037 159 -1827 377 -2620 30 -111 37 -148 28 -157 -7 -6
-70 -28 -142 -48 -178 -50 -459 -144 -629 -211 -199 -79 -518 -237 -670 -333
-71 -45 -132 -81 -136 -81 -11 0 -141 158 -259 315 -562 750 -940 1634 -1095
2561 -42 248 -86 700 -71 724 4 7 416 9 1298 8 l1292 -3 7 -155z m3068 -1139
l0 -1299 -102 -6 c-57 -3 -211 -10 -343 -16 -373 -17 -733 -51 -1120 -106
-162 -23 -537 -88 -575 -99 -29 -9 -40 12 -79 155 -179 651 -291 1308 -346
2015 -18 237 -35 624 -28 642 4 11 252 13 1299 13 l1294 0 0 -1299z m3073
1286 c6 -16 -8 -365 -23 -572 -54 -739 -169 -1425 -350 -2080 -22 -82 -46
-153 -53 -157 -7 -4 -19 -6 -27 -3 -38 11 -413 76 -575 99 -387 55 -747 89
-1120 106 -132 6 -286 13 -342 16 l-103 6 0 1299 0 1299 1294 0 c1056 0 1295
-2 1299 -13z m3069 -102 c-6 -215 -58 -607 -117 -884 -175 -810 -537 -1610
-1028 -2271 -112 -151 -266 -340 -277 -340 -4 0 -65 36 -136 81 -318 200 -792
399 -1284 539 -80 23 -150 47 -157 53 -9 9 -2 46 28 157 215 784 339 1644 375
2590 4 96 8 178 11 183 2 4 586 6 1296 5 l1292 -3 -3 -110z m-6142 -4244 c0
-804 -4 -1282 -10 -1286 -5 -3 -46 4 -90 15 -636 162 -1257 824 -1709 1821
-94 209 -191 449 -198 495 -6 37 -26 30 192 69 497 88 1216 159 1673 164 l142
1 0 -1279z m960 1264 c519 -31 962 -82 1389 -160 74 -14 136 -25 138 -25 29 0
-121 -377 -277 -695 -406 -827 -918 -1385 -1472 -1604 -91 -36 -235 -74 -248
-66 -6 4 -10 482 -10 1286 l0 1279 113 0 c61 0 227 -7 367 -15z m-3405 -453
c274 -733 639 -1354 1063 -1806 51 -55 89 -103 84 -108 -17 -17 -386 102 -658
210 -576 231 -1114 553 -1594 955 -142 119 -331 291 -344 314 -11 20 6 33 154
117 281 159 624 296 1055 422 83 24 158 42 168 41 14 -1 32 -36 72 -145z
m5592 108 c329 -92 642 -209 898 -335 162 -80 327 -175 333 -193 6 -20 -252
-256 -465 -425 -454 -359 -936 -640 -1468 -855 -270 -109 -650 -231 -667 -214
-5 5 36 57 93 118 171 184 342 406 486 634 222 351 464 858 618 1298 6 18 18
16 172 -28z"/>
</g>
</svg>
